<mxfile host="app.diagrams.net" agent="Mozilla/5.0 (X11; Linux x86_64; rv:141.0) Gecko/20100101 Firefox/141.0" version="28.1.1">
  <diagram name="Page-1" id="2wJG4AdMnpz-NX_0Jba6">
    <mxGraphModel dx="604" dy="660" grid="1" gridSize="10" guides="1" tooltips="1" connect="1" arrows="1" fold="1" page="1" pageScale="1" pageWidth="827" pageHeight="1169" math="0" shadow="0">
      <root>
        <mxCell id="0" />
        <mxCell id="1" parent="0" />
        <mxCell id="FHpluklMEc05XA-YjI_r-1" value="&lt;font data-font-src=&quot;https://fonts.googleapis.com/css?family=Inter&quot; face=&quot;Inter&quot;&gt;Usuario&lt;/font&gt;" style="shape=umlActor;verticalLabelPosition=bottom;verticalAlign=top;html=1;outlineConnect=0;fontSize=14;" vertex="1" parent="1">
          <mxGeometry x="70" y="40" width="20" height="40" as="geometry" />
        </mxCell>
        <mxCell id="FHpluklMEc05XA-YjI_r-3" value="" style="endArrow=none;html=1;rounded=0;strokeColor=default;align=center;verticalAlign=middle;fontFamily=Helvetica;fontSize=12;fontColor=default;labelBackgroundColor=none;startSize=5;endSize=5;opacity=50;dashed=1;entryX=0.5;entryY=1;entryDx=0;entryDy=0;" edge="1" parent="1">
          <mxGeometry width="50" height="50" relative="1" as="geometry">
            <mxPoint x="240" y="280" as="sourcePoint" />
            <mxPoint x="240" y="90" as="targetPoint" />
          </mxGeometry>
        </mxCell>
        <mxCell id="FHpluklMEc05XA-YjI_r-4" value="&lt;font face=&quot;Inter&quot;&gt;Ventana principal&lt;/font&gt;" style="text;html=1;align=center;verticalAlign=middle;whiteSpace=wrap;rounded=0;fontFamily=Helvetica;fontSize=14;fontColor=default;labelBackgroundColor=none;" vertex="1" parent="1">
          <mxGeometry x="180" y="50" width="120" height="40" as="geometry" />
        </mxCell>
        <mxCell id="FHpluklMEc05XA-YjI_r-5" value="" style="endArrow=none;html=1;rounded=0;strokeColor=default;align=center;verticalAlign=middle;fontFamily=Helvetica;fontSize=12;fontColor=default;labelBackgroundColor=none;startSize=5;endSize=5;opacity=50;dashed=1;" edge="1" parent="1">
          <mxGeometry width="50" height="50" relative="1" as="geometry">
            <mxPoint x="80" y="280" as="sourcePoint" />
            <mxPoint x="80" y="110" as="targetPoint" />
          </mxGeometry>
        </mxCell>
        <mxCell id="FHpluklMEc05XA-YjI_r-6" style="edgeStyle=none;shape=connector;rounded=0;orthogonalLoop=1;jettySize=auto;html=1;strokeColor=default;align=center;verticalAlign=middle;fontFamily=Helvetica;fontSize=13;fontColor=default;labelBackgroundColor=default;startSize=5;endArrow=classic;endSize=5;exitX=1;exitY=0.5;exitDx=0;exitDy=0;entryX=0;entryY=0;entryDx=0;entryDy=0;" edge="1" parent="1" target="FHpluklMEc05XA-YjI_r-7">
          <mxGeometry relative="1" as="geometry">
            <mxPoint x="80" y="140" as="sourcePoint" />
            <mxPoint x="170" y="140" as="targetPoint" />
          </mxGeometry>
        </mxCell>
        <mxCell id="FHpluklMEc05XA-YjI_r-7" value="" style="rounded=0;whiteSpace=wrap;html=1;" vertex="1" parent="1">
          <mxGeometry x="232.5" y="140" width="15" height="120" as="geometry" />
        </mxCell>
        <mxCell id="FHpluklMEc05XA-YjI_r-11" value="Enviar perfiles" style="text;html=1;align=center;verticalAlign=middle;whiteSpace=wrap;rounded=0;fontFamily=Inter;fontSource=https%3A%2F%2Ffonts.googleapis.com%2Fcss%3Ffamily%3DInter;" vertex="1" parent="1">
          <mxGeometry x="80" y="120" width="150" height="20" as="geometry" />
        </mxCell>
        <mxCell id="FHpluklMEc05XA-YjI_r-12" style="edgeStyle=none;shape=connector;rounded=0;orthogonalLoop=1;jettySize=auto;html=1;strokeColor=default;align=center;verticalAlign=middle;fontFamily=Helvetica;fontSize=13;fontColor=default;labelBackgroundColor=default;startSize=5;endArrow=classic;endSize=5;exitX=1;exitY=0.5;exitDx=0;exitDy=0;entryX=0;entryY=0;entryDx=0;entryDy=0;" edge="1" parent="1" target="FHpluklMEc05XA-YjI_r-16">
          <mxGeometry relative="1" as="geometry">
            <mxPoint x="247.5" y="160" as="sourcePoint" />
            <mxPoint x="380.5" y="160" as="targetPoint" />
          </mxGeometry>
        </mxCell>
        <mxCell id="FHpluklMEc05XA-YjI_r-13" value="Mostrar&amp;nbsp;" style="text;html=1;align=center;verticalAlign=middle;whiteSpace=wrap;rounded=0;fontFamily=Inter;fontSource=https%3A%2F%2Ffonts.googleapis.com%2Fcss%3Ffamily%3DInter;" vertex="1" parent="1">
          <mxGeometry x="247.5" y="140" width="142.5" height="20" as="geometry" />
        </mxCell>
        <mxCell id="FHpluklMEc05XA-YjI_r-14" value="" style="endArrow=none;html=1;rounded=0;strokeColor=default;align=center;verticalAlign=middle;fontFamily=Helvetica;fontSize=12;fontColor=default;labelBackgroundColor=none;startSize=5;endSize=5;opacity=50;dashed=1;entryX=0.5;entryY=1;entryDx=0;entryDy=0;" edge="1" parent="1">
          <mxGeometry width="50" height="50" relative="1" as="geometry">
            <mxPoint x="400" y="280" as="sourcePoint" />
            <mxPoint x="400" y="90" as="targetPoint" />
          </mxGeometry>
        </mxCell>
        <mxCell id="FHpluklMEc05XA-YjI_r-15" value="&lt;font face=&quot;Inter&quot;&gt;Ventana envÃ­o&lt;/font&gt;" style="text;html=1;align=center;verticalAlign=middle;whiteSpace=wrap;rounded=0;fontFamily=Helvetica;fontSize=14;fontColor=default;labelBackgroundColor=none;" vertex="1" parent="1">
          <mxGeometry x="340" y="50" width="120" height="40" as="geometry" />
        </mxCell>
        <mxCell id="FHpluklMEc05XA-YjI_r-16" value="" style="rounded=0;whiteSpace=wrap;html=1;" vertex="1" parent="1">
          <mxGeometry x="392.5" y="160" width="15" height="40" as="geometry" />
        </mxCell>
        <mxCell id="FHpluklMEc05XA-YjI_r-17" style="edgeStyle=none;shape=connector;rounded=0;orthogonalLoop=1;jettySize=auto;html=1;strokeColor=default;align=center;verticalAlign=middle;fontFamily=Helvetica;fontSize=13;fontColor=default;labelBackgroundColor=default;startSize=5;endArrow=classic;endSize=5;exitX=0;exitY=1;exitDx=0;exitDy=0;" edge="1" parent="1" source="FHpluklMEc05XA-YjI_r-16">
          <mxGeometry relative="1" as="geometry">
            <mxPoint x="264.5" y="240" as="sourcePoint" />
            <mxPoint x="248" y="200" as="targetPoint" />
          </mxGeometry>
        </mxCell>
        <mxCell id="FHpluklMEc05XA-YjI_r-18" value="Perfiles seleccionados" style="text;html=1;align=center;verticalAlign=middle;whiteSpace=wrap;rounded=0;fontFamily=Inter;fontSource=https%3A%2F%2Ffonts.googleapis.com%2Fcss%3Ffamily%3DInter;" vertex="1" parent="1">
          <mxGeometry x="255" y="180" width="137.5" height="20" as="geometry" />
        </mxCell>
        <mxCell id="FHpluklMEc05XA-YjI_r-19" value="" style="endArrow=none;html=1;rounded=0;strokeColor=default;align=center;verticalAlign=middle;fontFamily=Helvetica;fontSize=12;fontColor=default;labelBackgroundColor=none;startSize=5;endSize=5;opacity=50;dashed=1;entryX=0.5;entryY=1;entryDx=0;entryDy=0;" edge="1" parent="1">
          <mxGeometry width="50" height="50" relative="1" as="geometry">
            <mxPoint x="560" y="280" as="sourcePoint" />
            <mxPoint x="560" y="90" as="targetPoint" />
          </mxGeometry>
        </mxCell>
        <mxCell id="FHpluklMEc05XA-YjI_r-20" value="&lt;font face=&quot;Inter&quot;&gt;PWM Box&lt;/font&gt;" style="text;html=1;align=center;verticalAlign=middle;whiteSpace=wrap;rounded=0;fontFamily=Helvetica;fontSize=14;fontColor=default;labelBackgroundColor=none;" vertex="1" parent="1">
          <mxGeometry x="500" y="50" width="120" height="40" as="geometry" />
        </mxCell>
        <mxCell id="FHpluklMEc05XA-YjI_r-21" value="" style="rounded=0;whiteSpace=wrap;html=1;" vertex="1" parent="1">
          <mxGeometry x="552.5" y="240" width="15" height="20" as="geometry" />
        </mxCell>
        <mxCell id="FHpluklMEc05XA-YjI_r-23" style="edgeStyle=none;shape=connector;rounded=0;orthogonalLoop=1;jettySize=auto;html=1;strokeColor=default;align=center;verticalAlign=middle;fontFamily=Helvetica;fontSize=13;fontColor=default;labelBackgroundColor=default;startSize=5;endArrow=classic;endSize=5;entryX=0;entryY=0;entryDx=0;entryDy=0;" edge="1" parent="1" target="FHpluklMEc05XA-YjI_r-21">
          <mxGeometry relative="1" as="geometry">
            <mxPoint x="247" y="240" as="sourcePoint" />
            <mxPoint x="400" y="240" as="targetPoint" />
          </mxGeometry>
        </mxCell>
        <mxCell id="FHpluklMEc05XA-YjI_r-24" value="Enviar mensaje" style="text;html=1;align=center;verticalAlign=middle;whiteSpace=wrap;rounded=0;fontFamily=Inter;fontSource=https%3A%2F%2Ffonts.googleapis.com%2Fcss%3Ffamily%3DInter;" vertex="1" parent="1">
          <mxGeometry x="247.5" y="219.17" width="302.5" height="20" as="geometry" />
        </mxCell>
      </root>
    </mxGraphModel>
  </diagram>
</mxfile>
